<svg xmlns="http://www.w3.org/2000/svg" width="120" height="30" viewBox="0 0 120 30" fill="none">
  <path d="M19.6 6L7.6 18.4L13.6 24.4L25.6 12L19.6 6Z" fill="#3395FF"/>
  <path d="M25.6 12L19.6 6L22.4 3.2C23.2 2.4 24.8 2.4 25.6 3.2L28.4 6C29.2 6.8 29.2 8.4 28.4 9.2L25.6 12Z" fill="#072654"/>
  <path d="M13.6 24.4L19.6 18.4L13.6 12.4L7.6 18.4L13.6 24.4Z" fill="#3395FF"/>
  <path d="M7.6 18.4L13.6 12.4L10.8 9.6C10 8.8 8.4 8.8 7.6 9.6L4.8 12.4C4 13.2 4 14.8 4.8 15.6L7.6 18.4Z" fill="#072654"/>
  <path d="M40 11.6H37.2V18H35.2V11.6H32.4V10H40V11.6Z" fill="white"/>
  <path d="M47.2 14C47.2 15.2 46.8 16.2 46 17C45.2 17.8 44.2 18.2 43 18.2C41.8 18.2 40.8 17.8 40 17C39.2 16.2 38.8 15.2 38.8 14C38.8 12.8 39.2 11.8 40 11C40.8 10.2 41.8 9.8 43 9.8C44.2 9.8 45.2 10.2 46 11C46.8 11.8 47.2 12.8 47.2 14ZM45.2 14C45.2 13.4 45 12.8 44.6 12.4C44.2 12 43.6 11.8 43 11.8C42.4 11.8 41.8 12 41.4 12.4C41 12.8 40.8 13.4 40.8 14C40.8 14.6 41 15.2 41.4 15.6C41.8 16 42.4 16.2 43 16.2C43.6 16.2 44.2 16 44.6 15.6C45 15.2 45.2 14.6 45.2 14Z" fill="white"/>
  <path d="M56.4 18H54.4V14.8C54.4 14.2 54.2 13.8 54 13.6C53.8 13.4 53.4 13.2 53 13.2C52.4 13.2 52 13.4 51.8 13.8C51.6 14.2 51.4 14.6 51.4 15.2V18H49.4V10H51.4V12.4C51.6 12 52 11.6 52.4 11.4C52.8 11.2 53.4 11 54 11C54.8 11 55.4 11.2 56 11.8C56.4 12.4 56.6 13.2 56.6 14.2V18H56.4Z" fill="white"/>
  <path d="M66 18H64V14.8C64 14.2 63.8 13.8 63.6 13.6C63.4 13.4 63 13.2 62.6 13.2C62 13.2 61.6 13.4 61.4 13.8C61.2 14.2 61 14.6 61 15.2V18H59V10H61V12.4C61.2 12 61.6 11.6 62 11.4C62.4 11.2 63 11 63.6 11C64.4 11 65 11.2 65.6 11.8C66 12.4 66.2 13.2 66.2 14.2V18H66Z" fill="white"/>
  <path d="M73.8 16.2C73.8 16.8 73.4 17.2 72.6 17.6C71.8 18 70.8 18.2 69.6 18.2C68.6 18.2 67.8 18 67.2 17.6C66.6 17.2 66.2 16.6 66 16L67.8 15.2C68 16 68.6 16.4 69.6 16.4C70 16.4 70.4 16.4 70.6 16.2C70.8 16.2 71 16 71 15.8C71 15.6 70.8 15.4 70.6 15.4C70.4 15.2 70 15.2 69.4 15C69 15 68.6 14.8 68.2 14.8C67.8 14.6 67.6 14.4 67.2 14.2C66.8 14 66.6 13.6 66.6 13.2C66.6 12.6 66.8 12.2 67.4 11.8C68 11.4 68.6 11.2 69.6 11.2C70.4 11.2 71 11.4 71.6 11.6C72.2 11.8 72.6 12.4 72.8 13L71 13.6C70.8 13 70.4 12.8 69.6 12.8C69.2 12.8 69 12.8 68.8 13C68.6 13.2 68.6 13.2 68.6 13.4C68.6 13.6 68.8 13.6 69 13.8C69.2 14 69.6 14 70 14.2C70.6 14.2 71 14.4 71.4 14.4C71.8 14.6 72.2 14.8 72.4 15C73 15.2 73.8 15.6 73.8 16.2Z" fill="white"/>
  <path d="M81.6 14C81.6 15.2 81.2 16.2 80.4 17C79.6 17.8 78.6 18.2 77.4 18.2C76.2 18.2 75.2 17.8 74.4 17C73.6 16.2 73.2 15.2 73.2 14C73.2 12.8 73.6 11.8 74.4 11C75.2 10.2 76.2 9.8 77.4 9.8C78.6 9.8 79.6 10.2 80.4 11C81.2 11.8 81.6 12.8 81.6 14ZM79.6 14C79.6 13.4 79.4 12.8 79 12.4C78.6 12 78 11.8 77.4 11.8C76.8 11.8 76.2 12 75.8 12.4C75.4 12.8 75.2 13.4 75.2 14C75.2 14.6 75.4 15.2 75.8 15.6C76.2 16 76.8 16.2 77.4 16.2C78 16.2 78.6 16 79 15.6C79.4 15.2 79.6 14.6 79.6 14Z" fill="white"/>
  <path d="M90.8 18H88.8V14.8C88.8 14.2 88.6 13.8 88.4 13.6C88.2 13.4 87.8 13.2 87.4 13.2C86.8 13.2 86.4 13.4 86.2 13.8C86 14.2 85.8 14.6 85.8 15.2V18H83.8V10H85.8V12.4C86 12 86.4 11.6 86.8 11.4C87.2 11.2 87.8 11 88.4 11C89.2 11 89.8 11.2 90.4 11.8C90.8 12.4 91 13.2 91 14.2V18H90.8Z" fill="white"/>
  <path d="M99.8 14.8H94.4C94.6 15.8 95.4 16.4 96.4 16.4C97.2 16.4 97.8 16 98.2 15.6L99.4 16.8C98.6 17.8 97.6 18.2 96.2 18.2C95 18.2 94 17.8 93.2 17C92.4 16.2 92 15.2 92 14C92 12.8 92.4 11.8 93.2 11C94 10.2 94.8 9.8 96 9.8C97.2 9.8 98 10.2 98.8 11C99.6 11.8 100 12.8 100 14C100 14.2 99.8 14.4 99.8 14.8ZM94.4 13.2H97.8C97.6 12.4 97 12 96.2 12C95.2 12 94.6 12.4 94.4 13.2Z" fill="white"/>
  <path d="M108.2 12.2C107.4 11.8 106.6 11.6 106 11.6C105.4 11.6 105 11.8 105 12.2C105 12.6 105.4 12.8 106.2 13C107 13.2 107.6 13.4 108 13.6C108.4 13.8 108.8 14 109 14.4C109.2 14.8 109.4 15.2 109.4 15.6C109.4 16.4 109 17 108.4 17.4C107.8 17.8 107 18 106 18C104.6 18 103.4 17.6 102.4 16.8L103.4 15.2C104.2 15.8 105 16.2 106 16.2C106.8 16.2 107.2 16 107.2 15.4C107.2 15 106.8 14.8 106 14.6C105.2 14.4 104.6 14.2 104.2 14C103.8 13.8 103.4 13.6 103.2 13.2C103 12.8 102.8 12.4 102.8 12C102.8 11.2 103.2 10.6 103.8 10.2C104.4 9.8 105.2 9.6 106 9.6C107.2 9.6 108.2 9.8 109.2 10.4L108.2 12.2Z" fill="white"/>
</svg> 